<svg id="Capa_1" data-name="Capa 1" xmlns="http://www.w3.org/2000/svg" viewBox="0 0 429.73 512"><defs><style>.cls-1{fill:#fff;}.cls-2{fill:#fcfafa;}.cls-3{fill:#ddb650;}</style></defs><title>cafee</title><path class="cls-1" d="M344.41,460.77H70.34A45.44,45.44,0,0,0,115.47,512h183.8a45.55,45.55,0,0,0,45.5-45.5A47.14,47.14,0,0,0,344.41,460.77Z" transform="translate(-41.14 0)"/><path class="cls-2" d="M384,218.35a87.35,87.35,0,0,0-10.37.64V164.63a15,15,0,0,0-15-15H56.18a15,15,0,0,0-15,15v228A58.38,58.38,0,0,0,55.2,430.69H359.54a58.35,58.35,0,0,0,14.06-38,87.34,87.34,0,0,0,10.37.63c47.91,0,86.89-39.25,86.89-87.49S431.88,218.35,384,218.35Zm0,144.91a56,56,0,0,1-10.37-1V249.39a56.91,56.91,0,0,1,10.37-.95c31.33,0,56.81,25.75,56.81,57.41S415.3,363.26,384,363.26Z" transform="translate(-41.14 0)"/><path class="cls-3" d="M178.38,49.4c-6.06-7.88-7.58-15.5-4.77-24A36,36,0,0,1,175,21.86a15.08,15.08,0,1,0-27.21-13c-7.27,15.54-9.92,37.27,6.73,58.89,6,7.83,7.69,15.74,5,24.17a31.86,31.86,0,0,1-1.34,3.5A15.08,15.08,0,1,0,185.65,108C192.6,92.52,194.93,70.88,178.38,49.4Z" transform="translate(-41.14 0)"/><path class="cls-3" d="M238.8,50.08c-7.48-11.47-6-21.72-3.28-28.38a15,15,0,0,0-3.15-16l-1-1.07A15.06,15.06,0,0,0,206.67,9c-6.47,14.83-8.55,35.65,6.1,58.09,5.62,8.61,7.15,16.94,4.7,25.48-.31,1.06-.66,2.07-1,3A15,15,0,0,0,220.19,112l.74.69a15.07,15.07,0,0,0,24.29-5.4C251.16,92.38,252.89,71.66,238.8,50.08Z" transform="translate(-41.14 0)"/></svg>