<svg id="Layer_1" data-name="Layer 1" xmlns="http://www.w3.org/2000/svg" viewBox="0 0 512 284.56"><defs><style>.cls-1{fill:#f8fffb;}</style></defs><title>ufo2</title><path class="cls-1" d="M375.69,214.3C365.74,157.24,315.86,113.72,256,113.72a121.08,121.08,0,0,0-45,8.6,10,10,0,0,0,7.41,18.58A101.56,101.56,0,0,1,357.5,235c-.85,1.86-7.65,7.87-28.85,13.18-19.8,5-45.6,7.69-72.65,7.69s-52.85-2.73-72.65-7.69c-21.2-5.31-28-11.32-28.85-13.18a100.94,100.94,0,0,1,7.18-37.34,10,10,0,0,0-18.58-7.41,120.81,120.81,0,0,0-6.8,24.05C92.5,220.93,0,240.07,0,283.48c0,23.31,27.46,43.18,79.4,57.45,8.91,2.45,18.36,4.69,28.28,6.72L102,368.94A10,10,0,0,0,109,381.19a10.16,10.16,0,0,0,2.6.35,10,10,0,0,0,9.65-7.42l6.12-22.83c35.69,5.92,76.23,9.29,118.59,9.75v27.24a10,10,0,0,0,20,0V361c42.36-.46,82.9-3.82,118.59-9.75l6.12,22.83a10,10,0,0,0,9.65,7.42,10.16,10.16,0,0,0,2.6-.35A10,10,0,0,0,410,368.94l-5.71-21.29c9.92-2,19.37-4.27,28.28-6.72,51.94-14.27,79.4-34.14,79.4-57.45,0-43.41-92.53-62.56-136.31-69.18ZM427.3,321.65c-45.63,12.54-106.46,19.44-171.3,19.44s-125.67-6.9-171.3-19.44C36.94,308.52,20,292.88,20,283.48c0-12.52,30.69-35.4,114.5-48.67v.41c0,32.09,76.37,40.65,121.5,40.65s121.5-8.56,121.5-40.65c0-.14,0-.27,0-.41C461.31,248.08,492,271,492,283.48,492,292.88,475.05,308.52,427.3,321.65Z" transform="translate(0 -113.72)"/><path class="cls-1" d="M256,298.48h0a10,10,0,1,0,10,10A10,10,0,0,0,256,298.48Z" transform="translate(0 -113.72)"/><path class="cls-1" d="M183.68,293.53h0a10,10,0,1,0,10,10A10,10,0,0,0,183.67,293.53Z" transform="translate(0 -113.72)"/><path class="cls-1" d="M113.43,275h0a10,10,0,1,0,10,10A10,10,0,0,0,113.43,275Z" transform="translate(0 -113.72)"/><path class="cls-1" d="M328.32,293.53a10,10,0,1,0,0,20h0a10,10,0,1,0,0-20Z" transform="translate(0 -113.72)"/><path class="cls-1" d="M398.57,275a10,10,0,1,0,0,20h0a10,10,0,0,0,0-20Z" transform="translate(0 -113.72)"/><path class="cls-1" d="M177.16,166.38a10,10,0,0,0,0-20h0a10,10,0,1,0,0,20Z" transform="translate(0 -113.72)"/></svg>